HIERARCHY
ROOT mixamorig:Hips
{
	OFFSET 0.000000 3.528733 0.000000
	CHANNELS 6 Xposition Yposition Zposition Xrotation Yrotation Zrotation
	JOINT mixamorig:Spine
	{
		OFFSET 0.000000 0.284700 -0.015200
		CHANNELS 3 Xrotation Yrotation Zrotation
		JOINT mixamorig:Spine1
		{
			OFFSET 0.000000 0.332125 -0.017771
			CHANNELS 3 Xrotation Yrotation Zrotation
			JOINT mixamorig:Spine2
			{
				OFFSET 0.000000 0.379557 -0.020309
				CHANNELS 3 Xrotation Yrotation Zrotation
				JOINT mixamorig:Neck
				{
					OFFSET 0.000000 0.426989 -0.022847
					CHANNELS 3 Xrotation Yrotation Zrotation
					JOINT mixamorig:Head
					{
						OFFSET 0.000000 0.288600 0.098000
						CHANNELS 3 Xrotation Yrotation Zrotation
						JOINT mixamorig:HeadTop_End
						{
							OFFSET 0.000000 0.712700 0.242000
							CHANNELS 3 Xrotation Yrotation Zrotation
							End Site
							{
								OFFSET 0.000000 0.752666 0.000000
							}
						}
					}
				}
				JOINT mixamorig:LeftShoulder
				{
					OFFSET 0.202600 0.346984 -0.022672
					CHANNELS 3 Xrotation Yrotation Zrotation
					JOINT mixamorig:LeftArm
					{
						OFFSET 0.427337 -0.109325 0.000307
						CHANNELS 3 Xrotation Yrotation Zrotation
						JOINT mixamorig:LeftForeArm
						{
							OFFSET 0.849600 0.000000 0.000000
							CHANNELS 3 Xrotation Yrotation Zrotation
							JOINT mixamorig:LeftHand
							{
								OFFSET 0.753900 0.000000 0.000000
								CHANNELS 3 Xrotation Yrotation Zrotation
								JOINT mixamorig:LeftHandThumb1
								{
									OFFSET 0.136012 -0.086473 0.045448
									CHANNELS 3 Xrotation Yrotation Zrotation
									JOINT mixamorig:LeftHandThumb2
									{
										OFFSET 0.103772 -0.059913 0.059913
										CHANNELS 3 Xrotation Yrotation Zrotation
										JOINT mixamorig:LeftHandThumb3
										{
											OFFSET 0.095779 -0.055298 0.055298
											CHANNELS 3 Xrotation Yrotation Zrotation
											JOINT mixamorig:LeftHandThumb4
											{
												OFFSET 0.073275 -0.042305 0.042305
												CHANNELS 3 Xrotation Yrotation Zrotation
												End Site
												{
													OFFSET 0.065698 -0.038445 0.056164
												}
											}
										}
									}
								}
								JOINT mixamorig:LeftHandIndex1
								{
									OFFSET 0.449965 -0.020370 0.085418
									CHANNELS 3 Xrotation Yrotation Zrotation
									JOINT mixamorig:LeftHandIndex2
									{
										OFFSET 0.102424 0.000000 -0.000000
										CHANNELS 3 Xrotation Yrotation Zrotation
										JOINT mixamorig:LeftHandIndex3
										{
											OFFSET 0.096306 0.000000 -0.000000
											CHANNELS 3 Xrotation Yrotation Zrotation
											JOINT mixamorig:LeftHandIndex4
											{
												OFFSET 0.078408 0.000000 -0.000000
												CHANNELS 3 Xrotation Yrotation Zrotation
												End Site
												{
													OFFSET 0.078400 -0.000010 -0.001100
												}
											}
										}
									}
								}
								JOINT mixamorig:LeftHandMiddle1
								{
									OFFSET 0.430485 0.000000 0.000000
									CHANNELS 3 Xrotation Yrotation Zrotation
									JOINT mixamorig:LeftHandMiddle2
									{
										OFFSET 0.112203 0.000000 0.000000
										CHANNELS 3 Xrotation Yrotation Zrotation
										JOINT mixamorig:LeftHandMiddle3
										{
											OFFSET 0.108209 0.000000 0.000000
											CHANNELS 3 Xrotation Yrotation Zrotation
											JOINT mixamorig:LeftHandMiddle4
											{
												OFFSET 0.087466 0.000000 0.000000
												CHANNELS 3 Xrotation Yrotation Zrotation
												End Site
												{
													OFFSET 0.087400 -0.000057 -0.003400
												}
											}
										}
									}
								}
								JOINT mixamorig:LeftHandRing1
								{
									OFFSET 0.364574 -0.002440 -0.092011
									CHANNELS 3 Xrotation Yrotation Zrotation
									JOINT mixamorig:LeftHandRing2
									{
										OFFSET 0.114832 0.000000 0.000000
										CHANNELS 3 Xrotation Yrotation Zrotation
										JOINT mixamorig:LeftHandRing3
										{
											OFFSET 0.104409 0.000000 0.000000
											CHANNELS 3 Xrotation Yrotation Zrotation
											JOINT mixamorig:LeftHandRing4
											{
												OFFSET 0.080424 0.000000 0.000000
												CHANNELS 3 Xrotation Yrotation Zrotation
												End Site
												{
													OFFSET 0.080200 -0.000053 -0.006000
												}
											}
										}
									}
								}
								JOINT mixamorig:LeftHandPinky1
								{
									OFFSET 0.312269 -0.016255 -0.171399
									CHANNELS 3 Xrotation Yrotation Zrotation
									JOINT mixamorig:LeftHandPinky2
									{
										OFFSET 0.087028 0.000000 0.000000
										CHANNELS 3 Xrotation Yrotation Zrotation
										JOINT mixamorig:LeftHandPinky3
										{
											OFFSET 0.073733 0.000000 0.000000
											CHANNELS 3 Xrotation Yrotation Zrotation
											JOINT mixamorig:LeftHandPinky4
											{
												OFFSET 0.056250 0.000000 0.000000
												CHANNELS 3 Xrotation Yrotation Zrotation
												End Site
												{
													OFFSET 0.056100 -0.000056 -0.004100
												}
											}
										}
									}
								}
							}
						}
					}
				}
				JOINT mixamorig:RightShoulder
				{
					OFFSET -0.202600 0.346968 -0.022971
					CHANNELS 3 Xrotation Yrotation Zrotation
					JOINT mixamorig:RightArm
					{
						OFFSET -0.427342 -0.109309 -0.000307
						CHANNELS 3 Xrotation Yrotation Zrotation
						JOINT mixamorig:RightForeArm
						{
							OFFSET -0.849600 0.000000 -0.000000
							CHANNELS 3 Xrotation Yrotation Zrotation
							JOINT mixamorig:RightHand
							{
								OFFSET -0.753900 0.000000 -0.000000
								CHANNELS 3 Xrotation Yrotation Zrotation
								JOINT mixamorig:RightHandThumb1
								{
									OFFSET -0.139217 -0.077736 0.046135
									CHANNELS 3 Xrotation Yrotation Zrotation
									JOINT mixamorig:RightHandThumb2
									{
										OFFSET -0.102889 -0.059403 0.059403
										CHANNELS 3 Xrotation Yrotation Zrotation
										JOINT mixamorig:RightHandThumb3
										{
											OFFSET -0.097122 -0.056073 0.056073
											CHANNELS 3 Xrotation Yrotation Zrotation
											JOINT mixamorig:RightHandThumb4
											{
												OFFSET -0.076714 -0.044291 0.044291
												CHANNELS 3 Xrotation Yrotation Zrotation
												End Site
												{
													OFFSET -0.072157 -0.042014 0.053259
												}
											}
										}
									}
								}
								JOINT mixamorig:RightHandIndex1
								{
									OFFSET -0.450325 -0.003448 0.076701
									CHANNELS 3 Xrotation Yrotation Zrotation
									JOINT mixamorig:RightHandIndex2
									{
										OFFSET -0.104343 0.000000 -0.000000
										CHANNELS 3 Xrotation Yrotation Zrotation
										JOINT mixamorig:RightHandIndex3
										{
											OFFSET -0.097003 0.000000 -0.000000
											CHANNELS 3 Xrotation Yrotation Zrotation
											JOINT mixamorig:RightHandIndex4
											{
												OFFSET -0.081630 0.000000 -0.000000
												CHANNELS 3 Xrotation Yrotation Zrotation
												End Site
												{
													OFFSET -0.081600 -0.000082 -0.002198
												}
											}
										}
									}
								}
								JOINT mixamorig:RightHandMiddle1
								{
									OFFSET -0.397234 0.000000 -0.000000
									CHANNELS 3 Xrotation Yrotation Zrotation
									JOINT mixamorig:RightHandMiddle2
									{
										OFFSET -0.115313 0.000000 -0.000000
										CHANNELS 3 Xrotation Yrotation Zrotation
										JOINT mixamorig:RightHandMiddle3
										{
											OFFSET -0.121324 0.000000 -0.000000
											CHANNELS 3 Xrotation Yrotation Zrotation
											JOINT mixamorig:RightHandMiddle4
											{
												OFFSET -0.103502 0.000000 0.000000
												CHANNELS 3 Xrotation Yrotation Zrotation
												End Site
												{
													OFFSET -0.103400 -0.000083 -0.004599
												}
											}
										}
									}
								}
								JOINT mixamorig:RightHandRing1
								{
									OFFSET -0.356229 0.006227 -0.097026
									CHANNELS 3 Xrotation Yrotation Zrotation
									JOINT mixamorig:RightHandRing2
									{
										OFFSET -0.116123 0.000000 0.000000
										CHANNELS 3 Xrotation Yrotation Zrotation
										JOINT mixamorig:RightHandRing3
										{
											OFFSET -0.105608 0.000000 0.000000
											CHANNELS 3 Xrotation Yrotation Zrotation
											JOINT mixamorig:RightHandRing4
											{
												OFFSET -0.089388 0.000000 0.000000
												CHANNELS 3 Xrotation Yrotation Zrotation
												End Site
												{
													OFFSET -0.089200 -0.000198 -0.005797
												}
											}
										}
									}
								}
								JOINT mixamorig:RightHandPinky1
								{
									OFFSET -0.319258 -0.005155 -0.189362
									CHANNELS 3 Xrotation Yrotation Zrotation
									JOINT mixamorig:RightHandPinky2
									{
										OFFSET -0.084919 0.000000 0.000000
										CHANNELS 3 Xrotation Yrotation Zrotation
										JOINT mixamorig:RightHandPinky3
										{
											OFFSET -0.068357 0.000000 0.000000
											CHANNELS 3 Xrotation Yrotation Zrotation
											JOINT mixamorig:RightHandPinky4
											{
												OFFSET -0.053427 0.000000 0.000000
												CHANNELS 3 Xrotation Yrotation Zrotation
												End Site
												{
													OFFSET -0.053400 -0.000117 -0.001696
												}
											}
										}
									}
								}
							}
						}
					}
				}
			}
		}
	}
	JOINT mixamorig:LeftUpLeg
	{
		OFFSET 0.302300 -0.158000 -0.006800
		CHANNELS 3 Xrotation Yrotation Zrotation
		JOINT mixamorig:LeftLeg
		{
			OFFSET -0.021195 -1.512800 -0.072827
			CHANNELS 3 Xrotation Yrotation Zrotation
			JOINT mixamorig:LeftFoot
			{
				OFFSET 0.021196 -1.499076 -0.232845
				CHANNELS 3 Xrotation Yrotation Zrotation
				JOINT mixamorig:LeftToeBase
				{
					OFFSET 0.176214 -0.335644 0.384848
					CHANNELS 3 Xrotation Yrotation Zrotation
					JOINT mixamorig:LeftToe_End
					{
						OFFSET 0.078950 -0.008059 0.195507
						CHANNELS 3 Xrotation Yrotation Zrotation
						End Site
						{
							OFFSET 0.078950 -0.008059 0.195507
						}
					}
				}
			}
		}
	}
	JOINT mixamorig:RightUpLeg
	{
		OFFSET -0.302300 -0.158000 -0.006600
		CHANNELS 3 Xrotation Yrotation Zrotation
		JOINT mixamorig:RightLeg
		{
			OFFSET 0.021196 -1.512831 -0.074247
			CHANNELS 3 Xrotation Yrotation Zrotation
			JOINT mixamorig:RightFoot
			{
				OFFSET -0.021196 -1.499093 -0.231430
				CHANNELS 3 Xrotation Yrotation Zrotation
				JOINT mixamorig:RightToeBase
				{
					OFFSET -0.176206 -0.335620 0.376547
					CHANNELS 3 Xrotation Yrotation Zrotation
					JOINT mixamorig:RightToe_End
					{
						OFFSET -0.078935 -0.008056 0.196268
						CHANNELS 3 Xrotation Yrotation Zrotation
						End Site
						{
							OFFSET -0.078935 -0.008056 0.196268
						}
					}
				}
			}
		}
	}
}
MOTION
Frames: 4
Frame Time: 0.016667
-0.016999 0.636194 0.065720 -107.738236 6.335299 5.503655 33.705218 1.759733 0.903270 21.447387 2.889916 0.440448 21.424615 3.184568 0.648242 16.528650 1.592531 3.071918 18.856643 17.354548 -11.052592 -0.000000 0.000001 0.000003 3.465476 -0.568624 14.005666 -74.104725 -11.726010 -54.851077 -0.000027 -121.811383 -0.000008 -26.042799 -22.777335 18.060070 0.699754 -6.020119 19.223928 19.074656 26.512458 -1.026380 3.271065 -0.981147 3.963639 -0.000001 0.000002 0.000001 1.370697 5.938692 -40.471313 0.883079 3.094856 -31.844196 0.339560 1.967242 -19.583705 -0.000004 0.000002 -0.000001 3.721807 9.203193 -36.448635 1.500532 3.916281 -41.916058 0.476250 2.315612 -23.240861 -0.000001 0.000003 -0.000004 3.090039 8.505099 -34.940383 1.098175 3.416395 -35.630259 0.533254 2.443995 -24.613775 0.000001 -0.000002 0.000001 3.603241 12.761732 -45.581288 0.673753 2.729586 -27.725818 0.089997 1.024047 -10.045312 -0.000000 0.000000 0.000000 2.275465 34.063892 6.833404 -70.629770 19.389387 58.081238 0.000011 117.481644 -0.000002 -12.570530 6.992151 -12.338935 -22.683495 -3.687027 -17.249269 13.666552 -20.582724 -6.820329 1.291434 -33.711471 -29.751368 -0.000001 -0.000002 -0.000002 0.246061 -3.262795 18.902296 0.589415 -2.269654 29.112640 0.172153 -1.255805 15.610712 0.000000 -0.000001 0.000000 -0.702545 -1.215804 21.259790 0.924236 -2.786652 36.691848 0.558015 -2.212370 28.309437 -0.000001 0.000000 -0.000001 -0.941544 -2.664842 38.529251 0.358947 -1.794597 22.620053 0.313726 -1.682029 21.129356 -0.000005 -0.000004 0.000001 -2.260411 -1.124657 39.408132 0.612397 -2.310413 29.687608 0.130085 -1.094175 13.559648 0.000002 0.000001 -0.000002 -90.164870 13.086479 -6.649861 115.278212 -1.979233 0.521973 -17.177133 0.354995 -2.318000 0.619754 0.000007 0.000000 -0.000000 -0.000003 -0.000001 -4.130664 -8.374852 -8.176421 36.341582 -6.207532 0.064713 -11.055115 -0.288727 2.083525 -1.725740 -0.000010 0.000000 0.000000 0.000006 0.000000 
-0.015048 0.633958 0.069370 -107.585288 6.199183 4.977040 33.634706 1.606949 0.746580 21.395019 2.748192 0.359198 21.370666 3.040184 0.569153 16.609026 1.601981 2.733266 18.631691 16.735956 -10.518564 -0.000001 0.000001 0.000001 3.683547 -1.963969 13.299433 -74.422834 -11.544370 -54.888111 0.000022 -121.784281 -0.000001 -26.078745 -22.273932 17.175421 0.699753 -6.020121 19.223923 19.074654 26.512453 -1.026373 3.271067 -0.981142 3.963641 -0.000004 -0.000003 -0.000001 1.370695 5.938694 -40.471306 0.883076 3.094860 -31.844193 0.339560 1.967242 -19.583703 0.000004 -0.000000 -0.000001 3.721808 9.203182 -36.448635 1.500521 3.916285 -41.916062 0.476251 2.315614 -23.240866 -0.000002 0.000001 0.000000 3.090040 8.505094 -34.940383 1.098171 3.416396 -35.630259 0.533250 2.443996 -24.613772 -0.000002 -0.000001 0.000003 3.603243 12.761722 -45.581288 0.673749 2.729585 -27.725819 0.090002 1.024047 -10.045312 -0.000005 0.000001 -0.000002 2.367630 33.524614 6.637738 -70.547009 19.623567 57.750431 0.000017 117.539032 -0.000002 -12.578463 6.825110 -12.636920 -22.683495 -3.687029 -17.249269 13.666549 -20.582727 -6.820333 1.291438 -33.711474 -29.751372 -0.000004 -0.000003 -0.000002 0.246057 -3.262799 18.902291 0.589411 -2.269648 29.112640 0.172152 -1.255796 15.610710 -0.000001 0.000001 -0.000001 -0.702547 -1.215809 21.259789 0.924238 -2.786646 36.691851 0.558012 -2.212374 28.309437 -0.000001 0.000002 -0.000001 -0.941541 -2.664844 38.529251 0.358943 -1.794593 22.620050 0.313724 -1.682031 21.129356 -0.000004 0.000001 -0.000002 -2.260405 -1.124660 39.408136 0.612399 -2.310421 29.687608 0.130088 -1.094183 13.559647 0.000003 -0.000001 -0.000001 -89.070223 12.236730 -6.175412 113.718026 -2.330417 0.242583 -17.138731 0.327710 -1.998800 0.606621 -0.000006 0.000002 -0.000000 -0.000003 -0.000002 -6.068867 -8.008345 -7.955639 40.403103 -6.644980 0.240901 -11.358500 -0.385967 1.523960 -2.040640 0.000004 -0.000004 -0.000000 -0.000001 -0.000000 
-0.012863 0.631779 0.073457 -107.460268 6.007791 4.293732 33.512600 1.436937 0.575456 21.357206 2.572827 0.268549 21.330956 2.862937 0.482668 16.680616 1.596156 2.342266 18.427353 15.990921 -9.988711 -0.000000 0.000001 -0.000000 3.892613 -3.593910 12.586366 -74.713541 -11.147365 -55.004948 -0.000044 -121.845083 -0.000039 -26.039896 -21.668060 16.166718 0.699752 -6.020116 19.223931 19.074654 26.512448 -1.026381 3.271065 -0.981146 3.963642 -0.000002 -0.000005 0.000003 1.370696 5.938693 -40.471309 0.883072 3.094859 -31.844196 0.339552 1.967242 -19.583699 0.000000 0.000001 -0.000000 3.721808 9.203191 -36.448628 1.500525 3.916281 -41.916065 0.476252 2.315612 -23.240863 -0.000000 -0.000000 0.000001 3.090039 8.505100 -34.940379 1.098172 3.416392 -35.630259 0.533253 2.443995 -24.613775 0.000000 0.000001 -0.000003 3.603243 12.761725 -45.581288 0.673744 2.729586 -27.725818 0.089992 1.024047 -10.045314 0.000002 0.000000 -0.000001 2.468303 32.903436 6.435263 -70.478174 19.947299 57.364409 0.000034 117.573565 -0.000017 -12.630383 6.595396 -12.919534 -22.683490 -3.687028 -17.249264 13.666551 -20.582726 -6.820331 1.291430 -33.711474 -29.751372 -0.000003 -0.000003 -0.000001 0.246057 -3.262797 18.902294 0.589405 -2.269653 29.112640 0.172155 -1.255793 15.610710 0.000000 -0.000002 0.000002 -0.702543 -1.215808 21.259790 0.924244 -2.786651 36.691848 0.558012 -2.212371 28.309435 0.000000 -0.000001 0.000000 -0.941540 -2.664841 38.529251 0.358947 -1.794594 22.620048 0.313723 -1.682027 21.129351 -0.000000 -0.000002 -0.000002 -2.260407 -1.124659 39.408136 0.612399 -2.310418 29.687612 0.130091 -1.094178 13.559649 0.000002 -0.000002 0.000001 -88.066110 11.375675 -5.542045 112.347924 -2.705759 -0.000654 -17.144589 0.304253 -1.677125 0.575263 -0.000006 -0.000001 0.000001 -0.000002 0.000001 -8.534251 -7.547759 -7.686902 45.088521 -7.117181 0.408166 -11.985322 -0.415121 0.870011 -2.255560 0.000004 -0.000003 -0.000000 0.000000 0.000002 
-0.010512 0.629508 0.077757 -107.367029 5.787188 3.515352 33.350236 1.253877 0.398465 21.324298 2.376031 0.178472 21.295912 2.665151 0.398298 16.749275 1.575873 1.934629 18.215063 15.159427 -9.466141 0.000000 0.000001 -0.000001 4.072375 -5.338618 11.897858 -74.972118 -10.641937 -55.149881 -0.000004 -121.947454 -0.000005 -25.947622 -21.068099 15.134731 0.699754 -6.020119 19.223923 19.074652 26.512453 -1.026382 3.271064 -0.981144 3.963640 0.000001 0.000004 -0.000001 1.370694 5.938697 -40.471313 0.883075 3.094855 -31.844196 0.339561 1.967242 -19.583701 -0.000002 -0.000000 0.000000 3.721807 9.203188 -36.448635 1.500534 3.916279 -41.916062 0.476247 2.315613 -23.240866 -0.000003 -0.000000 0.000001 3.090041 8.505095 -34.940379 1.098173 3.416395 -35.630266 0.533252 2.443995 -24.613773 0.000001 -0.000000 -0.000000 3.603241 12.761733 -45.581285 0.673753 2.729586 -27.725816 0.090003 1.024047 -10.045310 0.000004 0.000000 -0.000001 2.574804 32.214574 6.223817 -70.425131 20.329356 56.927615 -0.000014 117.594015 0.000037 -12.718972 6.341696 -13.205337 -22.683495 -3.687026 -17.249267 13.666553 -20.582727 -6.820329 1.291436 -33.711474 -29.751372 0.000000 -0.000005 -0.000002 0.246054 -3.262798 18.902289 0.589410 -2.269657 29.112640 0.172153 -1.255796 15.610710 -0.000002 -0.000001 0.000001 -0.702547 -1.215805 21.259789 0.924241 -2.786652 36.691848 0.558010 -2.212373 28.309437 -0.000002 -0.000001 -0.000002 -0.941541 -2.664838 38.529247 0.358945 -1.794589 22.620045 0.313721 -1.682032 21.129356 -0.000001 -0.000000 0.000002 -2.260409 -1.124655 39.408132 0.612396 -2.310421 29.687608 0.130088 -1.094176 13.559650 0.000003 -0.000000 0.000001 -86.984727 10.499876 -4.799885 111.002834 -3.099427 -0.220580 -17.147820 0.288958 -1.371870 0.541357 0.000001 -0.000004 0.000001 -0.000002 0.000001 -11.303826 -7.026157 -7.364126 50.140016 -7.589369 0.564703 -12.751419 -0.420502 0.177526 -2.412239 0.000002 -0.000000 0.000000 0.000001 -0.000001 
